Coordinates
version=1
nRows=19
nColumns=36
inDegrees=yes

Units are S.I. units (second, meters, Newtons, ...)
If the header above contains a line with 'inDegrees', this indicates whether rotational values are in degrees (yes) or radians (no).

endheader
time	pelvis_tilt	pelvis_list	pelvis_rotation	pelvis_tx	pelvis_ty	pelvis_tz	hip_flexion_r	hip_adduction_r	hip_rotation_r	knee_angle_r	knee_angle_r_beta	ankle_angle_r	subtalar_angle_r	mtp_angle_r	hip_flexion_l	hip_adduction_l	hip_rotation_l	knee_angle_l	knee_angle_l_beta	ankle_angle_l	subtalar_angle_l	mtp_angle_l	lumbar_extension	lumbar_bending	lumbar_rotation	arm_flex_r	arm_add_r	arm_rot_r	elbow_flex_r	pro_sup_r	arm_flex_l	arm_add_l	arm_rot_l	elbow_flex_l	pro_sup_l
      0.00000000	     -7.28756924	     -1.42165543	     -5.10931770	      0.55450660	      0.86453379	      0.06291956	     11.59168111	      5.83548046	      1.67024345	     10.39972614	      0.18150946	     -0.12809149	    -16.98089164	     -6.84409618	      8.98047833	     -1.62485252	     -4.39529019	      7.10193471	      0.12395214	      9.35000365	     -1.73677797	     -6.84409618	     -4.15417344	      1.40146413	     -0.04154146	     38.06605705	      3.05089884	     61.75266965	    120.37786441	    110.38563094	     38.95161718	      6.98978727	     65.45684392	    119.44955346	    105.45214466
      0.01666670	    -10.27132301	     -0.57599600	     -5.54368584	      0.55697719	      0.85892548	      0.06260027	     14.44187448	      5.38595568	      1.57197150	     10.71753794	      0.18705632	      4.64870215	    -12.75176240	     -7.04133972	     12.85631844	     -0.88380906	     -5.37893960	      7.70669321	      0.13450717	      9.72339182	      0.32374537	     -7.04133972	      0.43878623	      0.76279871	      0.88925203	     37.74428353	      2.31258090	     61.22777152	    123.53018627	    107.50833146	     42.26543015	      7.28770794	     65.93465243	    121.35334677	    102.88555680
      0.03333330	    -10.86703067	      0.63252799	     -6.46504012	      0.55767274	      0.85652205	      0.06320491	     14.45102266	      4.50615067	      1.66275176	      9.56257225	      0.16689837	      5.22397303	    -11.77926604	     -7.05815618	     13.78980530	     -0.00415995	     -6.63101907	      8.14533791	      0.14216297	      9.73105670	      0.23468307	     -7.05815618	      1.50374463	     -0.48390699	      1.47285165	     36.74843574	      2.10367571	     61.80024172	    124.52141239	    107.19038008	     43.49874599	      6.38496234	     65.19916191	    122.61940113	    102.29065859
      0.05000000	    -11.17196954	      1.22423442	     -6.82174267	      0.55768139	      0.85365877	      0.06356868	     14.70118090	      4.03428965	      1.07102754	      9.37485576	      0.16362210	      6.93490325	     -9.48841885	     -7.17004131	     13.91680891	      0.48432292	     -7.44795365	      7.82034439	      0.13649076	      9.96897885	      0.86213882	     -7.17004131	      1.76701659	     -1.22073611	      2.50805942	     35.83814934	      1.84991165	     63.12784156	    125.04769361	    102.93839135	     44.53316576	      6.63796087	     66.32060866	    123.31034600	     94.38441317
      0.06666670	    -11.11276869	      1.37722663	     -6.99968984	      0.55819079	      0.85645106	      0.06338643	     14.31797256	      3.96345523	      1.15384942	      8.79925366	      0.15357595	      7.45647642	     -8.79806707	     -7.24532678	     13.90996447	      0.61867803	     -7.59362476	      7.97932580	      0.13926551	     10.12249783	      1.04140144	     -7.24532678	      1.63987515	     -1.24582359	      2.98215818	     35.11873095	      1.79486502	     64.26960874	    124.48995858	    101.08697118	     44.65463892	      6.66751994	     66.74689045	    123.37007465	     88.66320722
      0.08333330	    -10.83449368	      1.27392478	     -7.08026049	      0.55805045	      0.85720363	      0.06418140	     13.90250783	      4.13759687	      1.30463565	      8.67712295	      0.15144437	      7.51078063	     -8.74431317	     -7.30943302	     13.62957361	      0.50587128	     -7.47258431	      8.08242885	      0.14106500	     10.27886686	      0.92156558	     -7.30943302	      1.42974795	     -1.16725376	      3.17638769	     34.68148113	      1.61542812	     64.26525238	    124.10963093	     98.32563382	     44.77640486	      6.83479327	     66.96446590	    123.02329503	     85.01827806
      0.10000000	    -10.77253214	      1.23334575	     -6.97706164	      0.55826983	      0.85906583	      0.06358247	     13.91936536	      4.16979692	      1.24683433	      8.91732717	      0.15563672	      7.69621575	     -8.63284503	     -7.31847316	     13.81157743	      0.47612670	     -7.32632029	      8.51411438	      0.14859933	     10.24172894	      0.79287830	     -7.31847316	      1.52728958	     -1.09375399	      3.06275838	     34.37169060	      1.40371757	     64.12031641	    123.89202650	     97.32431926	     44.46527489	      6.79762061	     66.97556430	    122.79964784	     84.25544158
      0.11666670	    -10.34377886	      1.03930550	     -6.73898641	      0.55820273	      0.86173188	      0.06366038	     13.25541687	      4.32501837	      1.09247831	      8.59065798	      0.14993527	      7.18502573	     -8.99621469	     -7.33536697	     13.52094831	      0.37590849	     -7.08609546	      8.76748754	      0.15302152	     10.00937528	      0.27584833	     -7.33536697	      1.03805560	     -0.99351389	      3.01997450	     34.23923441	      1.39633259	     63.37469428	    123.26973518	     95.72656630	     44.27449066	      6.94906697	     67.05987373	    122.66439893	     82.23308751
      0.13333330	     -9.93304034	      0.92413888	     -6.49986547	      0.55805462	      0.85998996	      0.06369870	     12.61973516	      4.43255085	      1.31363818	      8.23449602	      0.14371907	      6.76453661	     -9.91099714	     -7.38015213	     13.27045218	      0.32021324	     -7.02063159	      9.00586252	      0.15718195	     10.23338478	      0.35009341	     -7.38015213	      0.63594820	     -1.10109271	      3.21115196	     34.27228605	      1.11839888	     62.56980230	    123.00747920	     92.58964641	     44.93336052	      7.25335767	     67.80663510	    122.13527420	     75.03079345
      0.15000000	     -9.73973805	      0.82955279	     -6.26002814	      0.55784798	      0.86041589	      0.06341285	     12.21897018	      4.48487776	      1.05595864	      7.88348524	      0.13759277	      6.63560878	     -9.94724993	     -7.39145092	     13.13145279	      0.27724389	     -6.92179760	      9.02847360	      0.15757659	     10.24915181	      0.31541338	     -7.39145092	      0.44185008	     -1.07199472	      2.93862719	     34.49490426	      1.13154264	     61.82723320	    122.91704988	     91.10901431	     44.93282426	      7.21752650	     67.75461027	    122.15706734	     73.74546323
      0.16666670	     -9.46027733	      0.72308996	     -6.06850389	      0.55812425	      0.86269868	      0.06364321	     11.72305615	      4.54349058	      0.95357554	      7.57044276	      0.13212915	      6.46925130	    -10.03604532	     -7.40218143	     12.79142217	      0.22688617	     -6.85587586	      8.95897628	      0.15636363	     10.25413639	      0.42703774	     -7.40218143	      0.12475417	     -1.06277937	      2.84135514	     34.65972380	      1.11264873	     61.20458569	    122.55889720	     89.70334651	     45.02011847	      7.23960611	     67.89033637	    121.97041848	     72.52872993
      0.18333330	     -9.43504514	      0.63470241	     -5.85894196	      0.55810631	      0.86442810	      0.06319813	     11.65071578	      4.57087778	      0.73397990	      7.50302551	      0.13095250	      6.47279482	     -9.87623461	     -7.41223887	     12.83930587	      0.13308531	     -6.71411136	      9.09642588	      0.15876258	     10.09821954	      0.32153625	     -7.41223887	      0.09865240	     -1.02210078	      2.65996244	     34.49495828	      1.14436028	     60.81266905	    122.26022456	     88.03572177	     44.63179339	      7.20894073	     67.89746276	    121.82602445	     71.35820838
      0.20000000	     -8.96402238	      0.54082978	     -5.77857084	      0.55767013	      0.86262604	      0.06261598	     11.15085542	      4.59075286	      0.67981182	      7.50171483	      0.13092962	      6.25554453	    -10.14044413	     -7.42174728	     12.39218198	      0.06715632	     -6.75473858	      9.25883422	      0.16159714	     10.07056344	      0.43559413	     -7.42174728	     -0.53878838	     -0.99292100	      2.63032453	     34.67314622	      1.43963546	     61.16470477	    122.22811678	     87.07341272	     44.95682233	      7.31972892	     68.09348974	    121.77199625	     70.48629668
      0.21666670	     -8.77597659	      0.45551205	     -5.72074575	      0.55775023	      0.86504149	      0.06306087	     10.96320936	      4.64374697	      0.57264614	      7.46337360	      0.13026044	      6.06514671	    -10.25953951	     -7.42956419	     12.21091453	     -0.03391381	     -6.79227857	      9.41391442	      0.16430380	      9.78652868	      0.29572084	     -7.42956419	     -0.82043008	     -0.93628917	      2.62814611	     34.56190970	      1.69412069	     61.56911377	    122.15303776	     86.05719721	     44.97583490	      7.38154180	     68.14443060	    121.76745282	     69.63288468
      0.23333330	     -8.60486545	      0.42129758	     -5.67712604	      0.55759108	      0.86101193	      0.06284562	     10.88589940	      4.66191201	      0.66182785	      7.56518844	      0.13203745	      5.84301382	    -10.83537125	     -7.44080546	     12.13340378	     -0.08563028	     -6.87065286	      9.71388465	      0.16953927	      9.76282480	      0.17582203	     -7.44080546	     -1.06409929	     -0.90817242	      2.63912034	     34.52461267	      1.99841425	     61.82836512	    122.21754109	     86.32499469	     45.17715872	      7.48291128	     67.94271368	    121.85628028	     68.64780488
      0.25000000	     -8.47317649	      0.33451490	     -5.47415084	      0.55750981	      0.86158292	      0.06266094	     10.78630968	      4.70444199	      0.48610257	      7.64496431	      0.13342980	      5.80691365	    -10.95306111	     -7.44638866	     12.10214345	     -0.14318145	     -6.63804211	      9.93779571	      0.17344726	      9.57849828	     -0.15248927	     -7.44638866	     -1.24925813	     -0.83258574	      2.51076549	     34.51132065	      2.21064176	     62.25863182	    122.44283774	     85.31898419	     45.32758715	      7.51409166	     67.72178995	    121.95303656	     67.96205550
      0.26666670	     -8.51454231	      0.25568635	     -5.22574972	      0.55769364	      0.86138683	      0.06236848	     10.79828076	      4.73519920	      0.34581738	      7.60539870	      0.13273925	      5.91495086	    -10.93923569	     -7.45046181	     12.23884939	     -0.19361311	     -6.53413183	     10.09150483	      0.17612999	      9.65461656	     -0.29353431	     -7.45046181	     -1.21958253	     -0.74395271	      2.46450914	     34.47248354	      2.46875248	     62.48144468	    122.43028811	     84.50261100	     45.33358901	      7.62903218	     67.53811861	    121.93051771	     67.57883846
      0.28333330	     -8.29017877	      0.13661103	     -4.97882807	      0.56107705	      0.86041094	      0.05983443	     10.48889898	      4.75288233	      0.20069911	      7.59104410	      0.13248871	      5.74290648	    -11.22595849	     -7.45095611	     11.91589556	     -0.20512082	     -6.43924724	     10.06351149	      0.17564141	      9.77513556	     -0.18567301	     -7.45095611	     -1.47338268	     -0.57026366	      2.32848461	     34.57458927	      2.70866121	     62.89691781	    122.58944577	     84.73355001	     45.47046174	      7.86824384	     67.40773563	    121.91489883	     67.57321401
      0.30000000	     -8.30585222	      0.07481631	     -4.90450359	      0.55735842	      0.86029303	      0.06240394	     10.49564800	      4.82641433	      0.13035652	      7.49513938	      0.13081486	      5.84089510	    -11.33695984	     -7.45104368	     11.88092775	     -0.24668382	     -6.46441931	      9.91919338	      0.17312258	      9.88424293	     -0.21749793	     -7.45104368	     -1.48811136	     -0.53426442	      2.33594436	     34.64923244	      2.82113073	     62.95445913	    122.69338648	     84.76990535	     45.59165662	      7.87294515	     67.31959831	    121.92335822	     67.56770156
